<svg width="52" height="47" viewBox="0 0 52 47" fill="none" xmlns="http://www.w3.org/2000/svg">
<path d="M24.6783 8.93417L26 11.3965L27.3216 8.9342C28.1238 7.43968 29.4613 5.43737 31.4272 3.88735L30.4985 2.70943L31.4272 3.88735C33.4512 2.29156 35.7132 1.5 38.1875 1.5C45.0951 1.5 50.5 7.24916 50.5 15.2736C50.5 19.5248 48.846 23.1615 45.7302 26.9944C42.5764 30.8741 38.0351 34.8259 32.394 39.7267L33.3778 40.8591L32.394 39.7268L32.393 39.7276C30.4883 41.3824 28.3232 43.2635 26.0714 45.2711L26.0709 45.2715C26.0482 45.2919 26.0232 45.3 26 45.3C25.9768 45.3 25.952 45.2919 25.9293 45.2716L25.9285 45.2709C23.6783 43.2648 21.5141 41.3846 19.6113 39.7314L19.6072 39.7278L19.6072 39.7278C13.9655 34.8265 9.42392 30.8743 6.26996 26.9945C3.15405 23.1615 1.5 19.5247 1.5 15.2736C1.5 7.24916 6.90492 1.5 13.8125 1.5C16.2868 1.5 18.5488 2.29156 20.5728 3.88735L21.4939 2.71907L20.5728 3.88735C22.5387 5.43738 23.8762 7.4396 24.6783 8.93417Z" stroke="#FD527B" stroke-width="3"/>
</svg>
