<svg width="52" height="52" viewBox="0 0 52 52" fill="none" xmlns="http://www.w3.org/2000/svg">
<circle cx="26" cy="26" r="26" fill="#3238BA"/>
<circle cx="26" cy="26" r="26" stroke="white"/>
<path d="M24.0898 28.7617C24.0898 27.668 24.2227 26.7969 24.4883 26.1484C24.7539 25.5 25.2383 24.8633 25.9414 24.2383C26.6523 23.6055 27.125 23.0938 27.3594 22.7031C27.5938 22.3047 27.7109 21.8867 27.7109 21.4492C27.7109 20.1289 27.1016 19.4688 25.8828 19.4688C25.3047 19.4688 24.8398 19.6484 24.4883 20.0078C24.1445 20.3594 23.9648 20.8477 23.9492 21.4727H20.5508C20.5664 19.9805 21.0469 18.8125 21.9922 17.9688C22.9453 17.125 24.2422 16.7031 25.8828 16.7031C27.5391 16.7031 28.8242 17.1055 29.7383 17.9102C30.6523 18.707 31.1094 19.8359 31.1094 21.2969C31.1094 21.9609 30.9609 22.5898 30.6641 23.1836C30.3672 23.7695 29.8477 24.4219 29.1055 25.1406L28.1562 26.043C27.5625 26.6133 27.2227 27.2812 27.1367 28.0469L27.0898 28.7617H24.0898ZM23.75 32.3594C23.75 31.8359 23.9258 31.4062 24.2773 31.0703C24.6367 30.7266 25.0938 30.5547 25.6484 30.5547C26.2031 30.5547 26.6562 30.7266 27.0078 31.0703C27.3672 31.4062 27.5469 31.8359 27.5469 32.3594C27.5469 32.875 27.3711 33.3008 27.0195 33.6367C26.6758 33.9727 26.2188 34.1406 25.6484 34.1406C25.0781 34.1406 24.6172 33.9727 24.2656 33.6367C23.9219 33.3008 23.75 32.875 23.75 32.3594Z" fill="white"/>
</svg>
