<svg width="17" height="15" viewBox="0 0 17 15" fill="none" xmlns="http://www.w3.org/2000/svg">
<path d="M5.34803 14.4063C11.7615 14.4063 15.2704 9.09145 15.2704 4.48385C15.2704 4.33443 15.2671 4.1817 15.2605 4.03229C15.9431 3.53865 16.5321 2.92721 17 2.2267C16.3643 2.50954 15.6893 2.69426 14.9982 2.77455C15.7259 2.33834 16.2708 1.65307 16.5318 0.845782C15.8472 1.25151 15.0985 1.53771 14.3179 1.69213C13.7918 1.13322 13.0964 0.763155 12.3389 0.63915C11.5815 0.515145 10.8043 0.644108 10.1276 1.0061C9.45079 1.36809 8.91211 1.94295 8.59481 2.64179C8.27751 3.34064 8.19926 4.12455 8.37217 4.87233C6.98593 4.80276 5.62979 4.44265 4.39165 3.81535C3.15352 3.18805 2.06103 2.30755 1.18502 1.23094C0.739783 1.99858 0.60354 2.90695 0.80398 3.77143C1.00442 4.63591 1.5265 5.39164 2.26412 5.88502C1.71036 5.86744 1.16873 5.71835 0.683984 5.45006V5.49322C0.683488 6.2988 0.961986 7.0797 1.47214 7.70316C1.98229 8.32662 2.6926 8.75418 3.48234 8.91315C2.96937 9.0535 2.43099 9.07395 1.90885 8.97291C2.1317 9.66571 2.56528 10.2717 3.14909 10.7062C3.73289 11.1407 4.43779 11.3821 5.16541 11.3967C3.93013 12.3671 2.40421 12.8934 0.833398 12.8909C0.554828 12.8905 0.276533 12.8734 0 12.8397C1.59577 13.8635 3.45208 14.4073 5.34803 14.4063Z" fill="white"/>
</svg>
