<svg width="217" height="399" viewBox="0 0 217 399" fill="none" xmlns="http://www.w3.org/2000/svg">
<path d="M16 376.486L29.3106 380L50 333.187L30.3551 328L16 376.486Z" fill="#FFB8B8"/>
<path d="M51.6672 398.842L9.65311 387.786L14.1915 372.507L41.5976 379.719C45.4719 380.738 48.7572 383.165 50.7308 386.464C52.7044 389.764 53.2047 393.666 52.1215 397.313L51.6672 398.842Z" fill="#2F2E41"/>
<path d="M175.004 387L189.234 386.999L196 336L175 336.001L175.004 387Z" fill="#FFB8B8"/>
<path d="M216.102 398.838L172.477 398.842L172.476 382.977L200.933 382.975C202.925 382.974 204.897 383.344 206.737 384.061C208.578 384.778 210.25 385.83 211.659 387.155C213.067 388.481 214.185 390.055 214.947 391.787C215.71 393.519 216.102 395.376 216.102 397.251L216.102 398.838Z" fill="#2F2E41"/>
<path d="M72.1611 178L40 251.483L171.325 279L173 237.888L113.368 178.647L72.1611 178Z" fill="#B3B3B3"/>
<path d="M143.083 62.7235C157.535 55.2876 162.846 38.2325 154.946 24.6298C147.046 11.0271 128.927 6.02795 114.475 13.4638C100.023 20.8997 94.7122 37.9549 102.612 51.5576C110.512 65.1602 128.632 70.1594 143.083 62.7235Z" fill="#FFB8B8"/>
<path d="M149.981 174L90.7337 151.026L85.4586 118.078C83.9052 108.447 86.331 98.6195 92.2315 90.6398C98.132 82.6602 107.053 77.1424 117.138 75.2343L124.975 73.7435C131.413 72.5225 138.068 72.8087 144.363 74.5772C150.657 76.3457 156.401 79.543 161.095 83.8915C165.692 88.0531 169.131 93.2284 171.102 98.9555C173.074 104.682 173.518 110.783 172.394 116.712C171.509 121.792 169.334 126.593 166.056 130.7C147.443 153.756 149.833 172.923 149.859 173.114L149.981 174Z" fill="#6C63FF"/>
<path d="M174.42 258L144.584 213.737L153.981 133.219L141 73L141.69 73.0161C149.24 73.1899 156.43 76.0662 161.769 81.0492C167.108 86.0322 170.189 92.7401 170.372 99.7835L183 158.793L174.42 258Z" fill="#2F2E41"/>
<path d="M174.473 377C173.23 376.999 172.025 376.591 171.063 375.847C170.102 375.102 169.442 374.066 169.197 372.914L156.271 312.192C153.91 301.067 149.465 290.43 143.144 280.783L106.672 225.045C106.49 224.767 106.231 224.543 105.924 224.396C105.616 224.248 105.271 224.184 104.927 224.21C104.583 224.236 104.253 224.351 103.974 224.543C103.694 224.734 103.477 224.995 103.344 225.296L43.381 361.382C42.899 362.469 42.0328 363.366 40.93 363.918C39.8271 364.471 38.5557 364.645 37.3321 364.412L21.3137 361.326C19.9414 361.068 18.7305 360.312 17.9394 359.222C17.1483 358.131 16.8396 356.792 17.0792 355.489L30.1466 282.734C32.8122 267.905 37.3542 253.432 43.6748 239.626L87.9299 143L153.239 163.263L157.549 206.468L187.725 275.498C189.81 280.266 191.057 285.323 191.415 290.47L196.99 370.251C197.076 371.583 196.609 372.893 195.687 373.904C194.765 374.914 193.461 375.544 192.054 375.658L174.917 376.983C174.768 376.994 174.62 377 174.473 377Z" fill="#2F2E41"/>
<path d="M55.6744 278L35 259.487L74.0718 117.346C76.5507 108.409 81.1984 100.139 87.6478 93.1877C94.0971 86.2367 102.171 80.7957 111.233 77.2946L112 77L109.912 163.51L55.6744 278Z" fill="#2F2E41"/>
<path d="M122.204 65.8933C114.885 59.8409 112.659 48.5503 117.144 40.2264C121.629 31.9025 132.352 27.4216 141.521 30.0398C150.157 32.5058 159.974 24.2803 158.922 15.4603C157.87 6.64021 146.386 0.894804 138.567 5.27658C132.646 3.00608 126.164 2.41819 119.901 3.5836C113.638 4.74901 107.861 7.61808 103.264 11.8458C94.0774 20.4437 90.5924 34.4993 94.7164 46.3184C98.8405 58.1375 110.352 67.0856 122.204 65.8933Z" fill="#2F2E41"/>
<path d="M95.7902 294.408C95.4278 294.54 95.0506 294.633 94.666 294.684L47.4505 300.951C46.3083 301.107 45.1444 300.888 44.1504 300.331C43.1563 299.774 42.3913 298.911 41.9811 297.886L1.33977 197.319C1.0766 196.667 0.964119 195.97 1.00999 195.274C1.05586 194.578 1.259 193.899 1.60558 193.284C1.95215 192.67 2.43401 192.133 3.01832 191.712C3.60263 191.29 4.27567 190.993 4.99156 190.841L4.99179 190.841L49.393 181.418C49.7358 181.345 50.067 181.23 50.3786 181.075L93.5651 159.603C93.8987 159.437 94.2508 159.307 94.6149 159.215L142.142 147.166C143.359 146.855 144.654 146.984 145.777 147.529C146.9 148.073 147.77 148.994 148.22 150.114L183.657 237.802C183.968 238.566 184.07 239.393 183.953 240.204C183.835 241.016 183.503 241.786 182.987 242.442L170.731 258.092C170.155 258.829 169.37 259.395 168.469 259.723L141.685 269.512C141.493 269.582 141.307 269.666 141.129 269.763L96.4984 294.088C96.2713 294.212 96.0346 294.319 95.7902 294.408Z" fill="white"/>
<path d="M117.75 161.059L111.696 162.589L95.6539 166.642L95.6253 166.648L73.6622 177.528L65.5115 181.566L65.5078 181.567L53.2662 187.63L52.9305 187.702L40.2137 190.389L34.0676 191.691L9 196.99L48.353 294L74.1849 290.585L80.5187 289.746L94.0186 287.959L94.1753 287.939L137.556 264.385L163.949 254.776L176 239.446L141.744 155L117.75 161.059Z" fill="#E6E6E6"/>
<path d="M147.477 168.976L16.8164 216.24L19.054 221.721L149.714 174.457L147.477 168.976Z" fill="white"/>
<path d="M170.001 224.144L39.3408 271.408L41.5784 276.888L172.239 229.624L170.001 224.144Z" fill="white"/>
<path d="M118.037 161L157 256.892L151.201 259L112 162.524L118.037 161Z" fill="white"/>
<path opacity="0.1" d="M139 264.145L138.049 264.488L94.4519 287.981L94.2939 288L53 188.005L53.3378 187.934L65.6408 181.887L65.6441 181.886L73.8362 177.858L95.9095 167.006L95.938 167L139 264.145Z" fill="black"/>
<path d="M96.0022 295.375C95.5992 295.521 95.1798 295.623 94.7523 295.68L47.3027 301.946C46.0325 302.118 44.7382 301.876 43.6328 301.259C42.5274 300.643 41.6766 299.689 41.2204 298.554L0.377744 198.01C0.0851224 197.29 -0.039916 196.518 0.0111212 195.748C0.0621583 194.978 0.288068 194.227 0.673492 193.547C1.05892 192.867 1.5948 192.273 2.2446 191.807C2.89439 191.34 3.64282 191.012 4.43893 190.844L49.0601 181.423C49.3579 181.36 49.6457 181.26 49.9165 181.126L93.3169 159.659C93.6878 159.475 94.0792 159.331 94.4839 159.229L142.247 147.183C143.601 146.839 145.041 146.983 146.289 147.585C147.538 148.188 148.506 149.207 149.006 150.445L184.619 238.113C184.965 238.959 185.078 239.873 184.947 240.771C184.817 241.669 184.447 242.521 183.873 243.246L171.557 258.893C170.916 259.708 170.043 260.334 169.041 260.698L142.125 270.484C141.958 270.545 141.796 270.618 141.641 270.702L96.7898 295.021C96.5373 295.158 96.2739 295.276 96.0022 295.375ZM4.42295 193.004C3.55966 193.318 2.86366 193.944 2.48789 194.743C2.11212 195.543 2.08734 196.451 2.41905 197.268L43.2617 297.812C43.5421 298.51 44.065 299.096 44.7445 299.475C45.4241 299.854 46.2197 300.003 47.0005 299.897L94.45 293.631C94.891 293.572 95.3162 293.435 95.7028 293.225L140.554 268.906C140.806 268.77 141.069 268.652 141.34 268.553L168.256 258.767C168.872 258.543 169.409 258.158 169.803 257.657L182.119 242.011C182.472 241.565 182.699 241.041 182.78 240.489C182.86 239.937 182.79 239.375 182.577 238.856L146.965 151.187C146.657 150.426 146.062 149.8 145.295 149.429C144.528 149.059 143.642 148.971 142.81 149.182L95.0477 161.228C94.7994 161.292 94.559 161.38 94.3307 161.492L50.9297 182.96C50.4893 183.177 50.0212 183.339 49.5369 183.442L4.91547 192.863C4.74783 192.898 4.5832 192.945 4.42295 193.004Z" fill="#E6E6E6"/>
<path d="M52 230C53.6569 230 55 228.881 55 227.5C55 226.119 53.6569 225 52 225C50.3431 225 49 226.119 49 227.5C49 228.881 50.3431 230 52 230Z" fill="#3F3D56"/>
<path d="M155 233C156.657 233 158 231.881 158 230.5C158 229.119 156.657 228 155 228C153.343 228 152 229.119 152 230.5C152 231.881 153.343 233 155 233Z" fill="#6C63FF"/>
<path d="M155.717 181.071C159.031 189.178 155.042 216.044 153.64 224.668C153.595 224.942 153.475 225.199 153.29 225.415C153.106 225.631 152.864 225.796 152.589 225.896C152.315 225.995 152.017 226.024 151.726 225.98C151.436 225.936 151.163 225.821 150.935 225.645C143.749 220.124 121.647 202.683 118.333 194.576C117.389 192.269 116.939 189.809 117.007 187.338C117.074 184.867 117.659 182.433 118.728 180.174C119.797 177.915 121.328 175.877 123.235 174.175C125.142 172.472 127.387 171.14 129.841 170.253C132.296 169.366 134.912 168.943 137.541 169.006C140.17 169.07 142.76 169.62 145.162 170.624C147.565 171.629 149.734 173.069 151.545 174.861C153.356 176.653 154.773 178.764 155.717 181.071V181.071Z" fill="#6C63FF"/>
<path d="M137.5 198C143.299 198 148 193.523 148 188C148 182.477 143.299 178 137.5 178C131.701 178 127 182.477 127 188C127 193.523 131.701 198 137.5 198Z" fill="white"/>
<path d="M123.422 165.942C123.859 164.388 124.643 162.946 125.718 161.717C126.792 160.488 128.132 159.502 129.643 158.829C131.154 158.156 132.799 157.812 134.461 157.821C136.124 157.831 137.765 158.193 139.267 158.883L158.55 142L172 150.847L144.424 174.318C143.06 176.687 140.847 178.488 138.204 179.382C135.56 180.275 132.671 180.198 130.082 179.166C127.493 178.133 125.385 176.217 124.158 173.78C122.93 171.342 122.668 168.554 123.422 165.942Z" fill="#FFB8B8"/>
<path d="M154.233 171L139 151.773L173.728 131.101L148.837 98.0679C146.803 95.3689 145.912 92.067 146.333 88.7946C146.754 85.5221 148.459 82.5093 151.12 80.3331C153.781 78.1568 157.212 76.9702 160.756 77.0006C164.299 77.0309 167.706 78.2761 170.324 80.4975L201.489 106.944C204.458 109.463 206.761 112.585 208.22 116.068C209.678 119.55 210.253 123.299 209.898 127.022C209.544 130.745 208.27 134.342 206.176 137.532C204.082 140.722 201.225 143.419 197.826 145.414L154.233 171Z" fill="#2F2E41"/>
<path d="M36.2672 222.039C37.6527 221.146 38.8105 219.982 39.6593 218.628C40.5081 217.275 41.0272 215.765 41.1798 214.204C41.3325 212.644 41.1151 211.072 40.5431 209.599C39.971 208.125 39.0581 206.786 37.8686 205.675L48 183.07L34.7154 174L20.8906 206.109C19.0152 208.089 17.9868 210.64 18.0001 213.277C18.0135 215.915 19.0678 218.456 20.9631 220.419C22.8585 222.383 25.4633 223.632 28.2839 223.931C31.1046 224.229 33.9451 223.556 36.2672 222.039V222.039Z" fill="#FFB8B8"/>
<path d="M42.5564 199L19 193.818L36.5542 146.003C39.5793 137.753 44.0421 130.038 49.7584 123.177L78.3967 88.7773C81.0158 85.6307 84.8484 83.593 89.055 83.1104C93.2615 82.6278 97.4991 83.7398 100.839 86.2027C104.18 88.6656 106.351 92.2786 106.876 96.2504C107.402 100.222 106.24 104.229 103.644 107.393L71.8661 146.135L42.5564 199Z" fill="#2F2E41"/>
</svg>
