<svg width="31" height="28" viewBox="0 0 31 28" fill="none" xmlns="http://www.w3.org/2000/svg">
<path d="M22.7656 0C21.0835 0 19.5412 0.54538 18.1818 1.62103C16.8785 2.65226 16.0108 3.96572 15.5 4.92081C14.9892 3.96565 14.1215 2.65226 12.8182 1.62103C11.4588 0.54538 9.91655 0 8.23438 0C3.54005 0 0 3.92849 0 9.13804C0 14.7662 4.41647 18.6168 11.1024 24.4462C12.2378 25.4362 13.5247 26.5583 14.8623 27.7551C15.0386 27.913 15.2651 28 15.5 28C15.7349 28 15.9614 27.913 16.1377 27.7551C17.4754 26.5582 18.7623 25.4361 19.8983 24.4456C26.5835 18.6168 31 14.7662 31 9.13804C31 3.92849 27.4599 0 22.7656 0Z" fill="#FD527B"/>
</svg>
