<svg width="311" height="311" viewBox="0 0 311 311" fill="none" xmlns="http://www.w3.org/2000/svg">
<path d="M306.65 0H205.842C205.456 0 205.07 0.0588371 204.702 0.172716L105.034 30.9161L5.36557 0.172716C4.18801 -0.187899 2.912 0.0246738 1.92376 0.761088C0.931733 1.49371 0.348633 2.65337 0.348633 3.88705V275.981C0.348633 277.687 1.45804 279.194 3.08617 279.695L103.894 310.792C104.265 310.907 104.648 310.964 105.034 310.964C105.42 310.964 105.803 310.907 106.174 310.792L206.425 279.868H306.65C308.793 279.868 310.528 278.127 310.528 275.981V3.88705C310.528 1.74044 308.793 0 306.65 0ZM108.911 206.384H109.12C111.263 206.384 112.997 204.643 112.997 202.497C112.997 200.35 111.263 198.61 109.12 198.61H108.911V91.3647H112.012C114.155 91.3647 115.89 89.6243 115.89 87.4777C115.89 85.3311 114.155 83.5906 112.012 83.5906H108.911V37.8535L201.965 9.1499V139.926H196.975C194.831 139.926 193.097 141.667 193.097 143.813C193.097 145.96 194.831 147.7 196.975 147.7H201.965V200.654C201.659 201.21 201.439 201.817 201.439 202.497C201.439 203.177 201.659 203.784 201.965 204.34V273.111L108.911 301.814V206.384ZM8.10311 9.15014L101.157 37.8535V83.5906H100.468C98.3246 83.5906 96.5904 85.3311 96.5904 87.4777C96.5904 89.6243 98.3246 91.3647 100.468 91.3647H101.157V140.003C101.026 139.99 100.913 139.926 100.778 139.926H89.2373C87.0942 139.926 85.3601 141.667 85.3601 143.813C85.3601 145.96 87.0942 147.7 89.2373 147.7H100.778C100.913 147.7 101.026 147.637 101.157 147.624V198.61H97.5787C95.4356 198.61 93.7014 200.35 93.7014 202.497C93.7014 204.643 95.4356 206.384 97.5787 206.384H101.157V301.814L8.10311 273.109V9.15014ZM302.773 272.094H209.719V206.384H216.861C219.004 206.384 220.738 204.643 220.738 202.497C220.738 200.35 219.004 198.61 216.861 198.61H209.719V147.457C211.264 146.945 212.396 145.533 212.396 143.813C212.396 142.093 211.264 140.681 209.719 140.169V7.77411H302.773V272.094Z" fill="black"/>
<path d="M181.273 91.3647H187.088C189.232 91.3647 190.966 89.6242 190.966 87.4776C190.966 85.331 189.232 83.5906 187.088 83.5906H181.273C179.13 83.5906 177.395 85.331 177.395 87.4776C177.395 89.6242 179.13 91.3647 181.273 91.3647Z" fill="black"/>
<path d="M50.4915 106.262C51.0708 106.57 51.6918 106.716 52.3052 106.716C53.6948 106.716 55.0351 105.966 55.7318 104.653C57.2918 101.709 59.4197 99.1391 62.0551 97.0171C63.7248 95.6715 63.9899 93.225 62.6495 91.551C61.3091 89.877 58.8669 89.6093 57.2009 90.955C53.7402 93.7431 50.9421 97.1253 48.8861 101.005C47.8789 102.901 48.5983 105.254 50.4915 106.262Z" fill="black"/>
<path d="M73.8647 147.386C75.7616 147.386 77.4163 145.993 77.6965 144.058C78.0069 141.935 76.5378 139.961 74.4175 139.651C71.0703 139.164 67.9049 138.046 65.0159 136.332C63.1795 135.244 60.7979 135.854 59.7074 137.698C58.617 139.547 59.2266 141.931 61.0705 143.024C64.8304 145.256 68.9462 146.71 73.3043 147.346C73.4936 147.372 73.6791 147.386 73.8647 147.386Z" fill="black"/>
<path d="M82.1871 198.61H70.6425C68.4994 198.61 66.7653 200.35 66.7653 202.497C66.7653 204.644 68.4994 206.384 70.6425 206.384H82.1871C84.3302 206.384 86.0644 204.644 86.0644 202.497C86.0644 200.35 84.3302 198.61 82.1871 198.61Z" fill="black"/>
<path d="M52.4642 132.629C53.0928 132.629 53.7289 132.477 54.3158 132.154C56.1976 131.125 56.8905 128.764 55.8644 126.88C54.2628 123.94 53.3275 120.764 53.0738 117.437C52.911 115.296 51.0103 113.708 48.9164 113.856C46.7809 114.017 45.1793 115.885 45.3421 118.026C45.6791 122.457 46.9286 126.69 49.0565 130.603C49.7608 131.896 51.0898 132.629 52.4642 132.629Z" fill="black"/>
<path d="M241.142 195.137C238.242 196.824 235.069 197.91 231.714 198.369C229.594 198.658 228.106 200.616 228.394 202.744C228.659 204.693 230.321 206.107 232.233 206.107C232.407 206.107 232.581 206.096 232.759 206.071C237.121 205.477 241.252 204.061 245.035 201.863C246.886 200.787 247.519 198.409 246.443 196.551C245.372 194.696 243.005 194.066 241.142 195.137Z" fill="black"/>
<path d="M223.911 147.701H228.136C230.276 147.701 232.4 147.959 234.452 148.467C234.766 148.545 235.077 148.581 235.387 148.581C237.129 148.581 238.712 147.399 239.147 145.628C239.662 143.544 238.394 141.437 236.315 140.921C233.657 140.261 230.904 139.927 228.136 139.927H223.911C221.768 139.927 220.033 141.667 220.033 143.814C220.033 145.96 221.768 147.701 223.911 147.701Z" fill="black"/>
<path d="M257.469 172.813C255.357 172.627 253.456 174.215 253.278 176.354C252.994 179.674 252.025 182.841 250.393 185.766C249.348 187.641 250.018 190.008 251.888 191.056C252.486 191.392 253.134 191.549 253.774 191.549C255.133 191.549 256.451 190.832 257.163 189.558C259.332 185.664 260.623 181.445 261.002 177.019C261.188 174.879 259.605 172.997 257.469 172.813Z" fill="black"/>
<path d="M251.593 163.021C252.21 164.519 253.656 165.422 255.175 165.422C255.671 165.422 256.174 165.325 256.659 165.124C258.636 164.302 259.575 162.028 258.757 160.045C257.076 155.981 254.603 152.351 251.4 149.255C249.859 147.769 247.405 147.813 245.917 149.354C244.429 150.899 244.475 153.36 246.016 154.85C248.446 157.202 250.324 159.95 251.593 163.021Z" fill="black"/>
<path d="M127.404 91.3647H138.945C141.088 91.3647 142.822 89.6242 142.822 87.4776C142.822 85.331 141.088 83.5906 138.945 83.5906H127.404C125.261 83.5906 123.527 85.331 123.527 87.4776C123.527 89.6242 125.261 91.3647 127.404 91.3647Z" fill="black"/>
<path d="M158.528 143.814C158.528 141.667 156.794 139.927 154.651 139.927H143.106C140.963 139.927 139.229 141.667 139.229 143.814C139.229 145.96 140.963 147.701 143.106 147.701H154.651C156.794 147.701 158.528 145.96 158.528 143.814Z" fill="black"/>
<path d="M131.592 143.814C131.592 141.667 129.858 139.927 127.714 139.927H116.17C114.027 139.927 112.293 141.667 112.293 143.814C112.293 145.96 114.027 147.701 116.17 147.701H127.714C129.858 147.701 131.592 145.96 131.592 143.814Z" fill="black"/>
<path d="M136.056 198.61H124.511C122.368 198.61 120.634 200.35 120.634 202.497C120.634 204.644 122.368 206.384 124.511 206.384H136.056C138.199 206.384 139.933 204.644 139.933 202.497C139.933 200.35 138.199 198.61 136.056 198.61Z" fill="black"/>
<path d="M162.992 198.61H151.448C149.304 198.61 147.57 200.35 147.57 202.497C147.57 204.644 149.304 206.384 151.448 206.384H162.992C165.135 206.384 166.869 204.644 166.869 202.497C166.869 200.35 165.135 198.61 162.992 198.61Z" fill="black"/>
<path d="M185.46 143.814C185.46 141.667 183.726 139.927 181.583 139.927H170.042C167.899 139.927 166.165 141.667 166.165 143.814C166.165 145.96 167.899 147.701 170.042 147.701H181.583C183.726 147.701 185.46 145.96 185.46 143.814Z" fill="black"/>
<path d="M189.924 198.61H178.383C176.24 198.61 174.506 200.35 174.506 202.497C174.506 204.644 176.24 206.384 178.383 206.384H189.924C192.067 206.384 193.802 204.644 193.802 202.497C193.802 200.35 192.067 198.61 189.924 198.61Z" fill="black"/>
<path d="M154.336 91.3647H165.881C168.024 91.3647 169.758 89.6242 169.758 87.4776C169.758 85.331 168.024 83.5906 165.881 83.5906H154.336C152.193 83.5906 150.459 85.331 150.459 87.4776C150.459 89.6242 152.193 91.3647 154.336 91.3647Z" fill="black"/>
<path d="M73.5504 91.7272C73.7473 91.7272 73.9518 91.712 74.1525 91.6797C75.489 91.471 76.8635 91.3647 78.2379 91.3647H85.0761C87.2192 91.3647 88.9534 89.6242 88.9534 87.4776C88.9534 85.331 87.2192 83.5906 85.0761 83.5906H78.2379C76.4659 83.5906 74.6863 83.7291 72.956 84.0005C70.8394 84.3308 69.393 86.3199 69.7224 88.4399C70.0215 90.3588 71.6724 91.7272 73.5504 91.7272Z" fill="black"/>
<path d="M54.9443 198.61H49.1285C46.9854 198.61 45.2512 200.35 45.2512 202.497C45.2512 204.644 46.9854 206.384 49.1285 206.384H54.9443C57.0874 206.384 58.8215 204.644 58.8215 202.497C58.8215 200.35 57.0874 198.61 54.9443 198.61Z" fill="black"/>
<path d="M257.242 128.282C257.254 128.282 257.269 128.282 257.28 128.282C258.355 128.271 259.374 127.816 260.101 127.022C261.445 125.551 293.042 90.6987 293.042 65.543C293.042 45.7547 276.984 29.6542 257.242 29.6542C237.5 29.6542 221.442 45.7547 221.442 65.543C221.442 92.0691 253.089 125.659 254.437 127.077C255.167 127.848 256.182 128.282 257.242 128.282ZM257.242 37.4283C272.706 37.4283 285.288 50.0403 285.288 65.543C285.288 83.6554 264.811 109.538 257.193 118.538C249.545 109.783 229.197 84.6822 229.197 65.543C229.197 50.0403 241.779 37.4283 257.242 37.4283Z" fill="black"/>
<path d="M272.448 63.9806C272.448 55.5763 265.625 48.7379 257.242 48.7379C248.859 48.7379 242.04 55.5763 242.04 63.9806C242.04 72.3848 248.859 79.2232 257.242 79.2232C265.625 79.2232 272.448 72.3848 272.448 63.9806ZM249.794 63.9806C249.794 59.8619 253.134 56.512 257.242 56.512C261.35 56.512 264.694 59.8619 264.694 63.9806C264.694 68.0992 261.35 71.4491 257.242 71.4491C253.134 71.4491 249.794 68.0992 249.794 63.9806Z" fill="black"/>
</svg>
