<svg width="273" height="622" viewBox="0 0 273 622" fill="none" xmlns="http://www.w3.org/2000/svg">
<path d="M148 622H137V5.26128C137 3.8659 137.58 2.52768 138.611 1.541C139.642 0.554317 141.041 0 142.5 0C143.959 0 145.358 0.554317 146.389 1.541C147.421 2.52768 148 3.8659 148 5.26128V622Z" fill="#E6E6E6"/>
<path d="M225.315 81H62.5919C61.1093 80.9984 59.6879 80.4431 58.6396 79.4559C57.5913 78.4687 57.0017 77.1302 57 75.734V31.266C57.0017 29.8698 57.5913 28.5313 58.6396 27.5441C59.6879 26.5569 61.1093 26.0016 62.5919 26H225.327C226.281 26.0006 227.218 26.2305 228.052 26.668L270.133 48.7837C271 49.2395 271.723 49.9047 272.227 50.7108C272.731 51.517 272.998 52.435 273 53.3704C273.002 54.3058 272.74 55.2248 272.24 56.0331C271.74 56.8413 271.02 57.5095 270.155 57.9689L228.061 80.3212C227.223 80.7656 226.277 80.9994 225.315 81Z" fill="#6C63FF"/>
<path d="M210.408 176H47.6853C46.7232 175.999 45.7774 175.77 44.939 175.334L2.84539 153.388C1.98014 152.937 1.26044 152.281 0.760353 151.487C0.260262 150.693 -0.00218072 149.791 1.36487e-05 148.873C0.00220802 147.954 0.268989 147.053 0.772868 146.262C1.27675 145.47 1.99953 144.817 2.86693 144.369L44.9484 122.656C45.7816 122.226 46.7195 122.001 47.6734 122H210.408C211.891 122.002 213.312 122.547 214.36 123.516C215.409 124.485 215.998 125.799 216 127.17V170.83C215.998 172.201 215.409 173.515 214.36 174.484C213.312 175.453 211.891 175.998 210.408 176Z" fill="#E6E6E6"/>
<path d="M211.408 271H48.6853C47.7232 270.999 46.7774 270.766 45.939 270.321L3.84539 247.969C2.98014 247.509 2.26044 246.841 1.76035 246.033C1.26026 245.225 0.997819 244.306 1.00001 243.37C1.00221 242.435 1.26899 241.517 1.77287 240.711C2.27675 239.905 2.99953 239.24 3.86693 238.784L45.9484 216.668C46.7816 216.231 47.7195 216.001 48.6734 216H211.408C212.891 216.002 214.312 216.557 215.36 217.544C216.409 218.531 216.998 219.87 217 221.266V265.734C216.998 267.13 216.409 268.469 215.36 269.456C214.312 270.443 212.891 270.998 211.408 271Z" fill="#E6E6E6"/>
</svg>
