<svg width="304" height="304" viewBox="0 0 304 304" fill="none" xmlns="http://www.w3.org/2000/svg">
<path d="M142.141 53.4904C142.142 53.4899 142.142 53.4894 142.143 53.489L142.141 53.4903L142.141 53.4904ZM150.194 28.778L151.882 28.2277L150.194 28.778L150.194 28.7794C150.194 28.7789 150.194 28.7784 150.194 28.778ZM162.741 54.3784L162.741 54.3784L159.874 45.5804L167.38 40.142L166.206 38.5225L167.38 40.142C169.028 38.9475 168.183 36.3415 166.148 36.3415L156.865 36.3415L153.997 27.5389C153.367 25.6062 150.633 25.6063 150.003 27.5389L147.136 36.3415L137.852 36.3415C135.817 36.3415 134.972 38.9476 136.62 40.142L136.62 40.142L144.126 45.5804L141.259 54.3784C140.629 56.3121 142.841 57.9228 144.488 56.7294L152 51.2863L159.512 56.7294C161.159 57.9228 163.371 56.3121 162.741 54.3784Z" stroke="black" stroke-width="4"/>
<path d="M300.2 295.61H249.843V260.879H291.26C298.022 260.879 303.525 255.392 303.525 248.647V211.6C303.525 209.507 301.825 207.81 299.725 207.81C297.625 207.81 295.925 209.507 295.925 211.6V230.555H286.18V172.272C286.18 156.865 273.611 144.331 258.163 144.331H249.843V116.548H291.26C298.022 116.548 303.525 111.061 303.525 104.318V67.2683C303.525 65.1753 301.825 63.4784 299.725 63.4784C297.625 63.4784 295.925 65.1753 295.925 67.2683V86.2231H286.18V27.9429C286.18 12.5354 273.611 0 258.163 0H233.919C218.47 0 205.901 12.5354 205.901 27.9429V86.2232H191.662V27.9429C191.662 12.5354 179.094 0 163.645 0H139.398C123.949 0 111.38 12.5354 111.38 27.9429V86.2232H97.1412V27.9429C97.1412 12.5354 84.5722 0 69.1236 0H44.88C29.4314 0 16.8625 12.5354 16.8625 27.9429V86.2232H7.6V67.2683C7.6 65.1754 5.90037 63.4784 3.8 63.4784C1.69963 63.4784 0 65.1754 0 67.2683V104.318C0 111.061 5.50331 116.548 12.2647 116.548H53.2037V144.331H44.8801C29.4315 144.331 16.8625 156.865 16.8625 172.272V230.555H7.6V211.6C7.6 209.507 5.90037 207.81 3.8 207.81C1.69963 207.81 0 209.507 0 211.6V248.647C0 255.392 5.50331 260.879 12.2647 260.879H53.2037V295.61H3.8C1.69963 295.61 0 297.307 0 299.399C0 301.492 1.69963 303.189 3.8 303.189H300.2C302.3 303.189 304 301.492 304 299.399C304 297.307 302.3 295.61 300.2 295.61ZM242.243 295.61H155.321V260.879H242.243L242.243 295.61ZM195.221 238.134V253.299H108.137V238.134H195.221ZM163.645 151.911C174.904 151.911 184.062 161.045 184.062 172.272V230.555H118.98V172.272C118.98 161.045 128.139 151.911 139.398 151.911L163.645 151.911ZM295.925 248.647C295.925 251.212 293.832 253.299 291.26 253.299H202.821V238.134H295.925V248.647ZM278.58 172.272V230.555H213.501V172.272C213.501 161.045 222.66 151.911 233.919 151.911H258.163C269.421 151.911 278.58 161.045 278.58 172.272ZM242.243 144.331H233.919C218.47 144.331 205.901 156.865 205.901 172.272V230.555H191.662V172.272C191.662 156.865 179.094 144.331 163.645 144.331H155.321V116.548H242.243L242.243 144.331ZM195.221 93.8029V108.968H108.137V93.8029H195.221ZM295.925 104.318C295.925 106.882 293.832 108.968 291.26 108.968H202.821V93.8029H295.925V104.318ZM213.501 27.9429C213.501 16.7139 222.66 7.57973 233.919 7.57973H258.163C269.421 7.57973 278.58 16.7139 278.58 27.9429V86.2232H213.501V27.9429ZM118.98 27.9429C118.98 16.7139 128.139 7.57973 139.398 7.57973H163.645C174.904 7.57973 184.062 16.7139 184.062 27.9429V86.2232H118.98V27.9429ZM24.4625 27.9429C24.4625 16.7139 33.6211 7.57973 44.8801 7.57973H69.1236C80.3826 7.57973 89.5412 16.7139 89.5412 27.9429V86.2232H24.4625V27.9429ZM7.6 104.318V93.8029H100.537V108.968H12.2647C9.69296 108.968 7.6 106.882 7.6 104.318ZM60.8037 116.548H147.721V144.331H139.398C123.949 144.331 111.38 156.865 111.38 172.272V230.555H97.1412V172.272C97.1412 156.865 84.5723 144.331 69.1236 144.331H60.8037V116.548ZM24.4625 172.272C24.4625 161.045 33.6211 151.911 44.8801 151.911H69.1236C80.3826 151.911 89.5412 161.045 89.5412 172.272V230.555H24.4625V172.272ZM7.6 248.647V238.134H100.537V253.299H12.2647C9.69296 253.299 7.6 251.212 7.6 248.647ZM60.8037 260.879H147.721V295.61H60.8037V260.879Z" fill="black"/>
</svg>
