<svg width="31" height="28" viewBox="0 0 31 28" fill="none" xmlns="http://www.w3.org/2000/svg">
<path d="M14.1773 5.62822L15.5 8.10136L16.8227 5.62826C17.2792 4.77473 18.0292 3.65453 19.1126 2.79733L18.1818 1.62103L19.1126 2.79732C20.2157 1.92442 21.4323 1.5 22.7656 1.5C26.4884 1.5 29.5 4.60617 29.5 9.13804C29.5 11.5014 28.5925 13.5478 26.7905 15.7724C24.9505 18.0441 22.2891 20.371 18.9125 23.315L18.9125 23.315L18.9113 23.3161C17.8786 24.2165 16.7148 25.2312 15.5 26.3136C14.2862 25.2322 13.1233 24.2182 12.0918 23.3187L12.0882 23.3156L12.0882 23.3156C8.71122 20.3713 6.04966 18.0442 4.20957 15.7725C2.40751 13.5478 1.5 11.5014 1.5 9.13804C1.5 4.60617 4.51158 1.5 8.23438 1.5C9.56773 1.5 10.7843 1.92442 11.8874 2.79732L12.8182 1.62103L11.8874 2.79733C12.9708 3.65455 13.7208 4.77469 14.1773 5.62822ZM15.8606 26.6355C15.8615 26.6363 15.8624 26.6371 15.8633 26.6379L15.8625 26.6372C15.8619 26.6366 15.8612 26.6361 15.8606 26.6355Z" stroke="#FD527B" stroke-width="3"/>
</svg>
