<svg width="354" height="263" viewBox="0 0 354 263" fill="none" xmlns="http://www.w3.org/2000/svg">
<g filter="url(#filter0_d)">
<rect x="32" y="28" width="289.213" height="199" rx="12" fill="#F7F7F7"/>
</g>
<rect x="45.6033" y="50.5583" width="82.2433" height="14.915" rx="7.4575" stroke="#3238BA" stroke-width="2"/>
<rect x="40.955" y="46.5734" width="91.6614" height="12.0291" fill="#F6F6F6"/>
<path fill-rule="evenodd" clip-rule="evenodd" d="M127.017 46.7794C127.482 46.7376 127.843 46.3476 127.843 45.8915C127.843 45.4005 127.432 45 126.928 45C126.423 45 126.012 45.4005 126.012 45.8915C126.012 46.0412 126.055 46.1944 126.127 46.3233L126.453 50.7929L129.813 50.7937L131.191 53.9377L133 53.2468L132.72 52.5972L131.707 52.9531L130.374 49.9558L127.25 49.9762L127.207 49.4102L129.469 49.411V48.5735L127.121 48.5726L127.017 46.7794Z" fill="#3238BA"/>
<path fill-rule="evenodd" clip-rule="evenodd" d="M130.396 53.1894C129.829 54.2809 128.642 55 127.376 55C125.517 55 124 53.5233 124 51.7127C124 50.4415 124.791 49.2601 125.972 48.7365L126.048 49.7073C125.35 50.1358 124.92 50.909 124.92 51.7194C124.92 53.0328 126.02 54.104 127.369 54.104C128.603 54.104 129.655 53.1819 129.799 51.9988L130.396 53.1894Z" fill="#3238BA"/>
<rect x="225.367" y="50.5583" width="82.2433" height="14.915" rx="7.4575" stroke="#3238BA" stroke-width="2"/>
<rect x="220.718" y="46.5734" width="91.6614" height="12.0291" fill="#F6F6F6"/>
<path fill-rule="evenodd" clip-rule="evenodd" d="M307.017 45.9574C307.482 45.9114 307.843 45.4824 307.843 44.9806C307.843 44.4405 307.432 44 306.928 44C306.423 44 306.012 44.4405 306.012 44.9806C306.012 45.1453 306.055 45.3139 306.127 45.4556L306.453 50.3721L309.813 50.3731L311.191 53.8314L313 53.0714L312.72 52.3569L311.707 52.7484L310.374 49.4513L307.25 49.4738L307.207 48.8512L309.469 48.8522V47.9309L307.121 47.9299L307.017 45.9574Z" fill="#3238BA"/>
<path fill-rule="evenodd" clip-rule="evenodd" d="M310.396 53.0084C309.829 54.209 308.642 55 307.376 55C305.517 55 304 53.3756 304 51.384C304 49.9856 304.791 48.6862 305.972 48.1101L306.049 49.1781C305.35 49.6494 304.92 50.4999 304.92 51.3913C304.92 52.8361 306.02 54.0145 307.369 54.0145C308.603 54.0145 309.655 53.0001 309.799 51.6987L310.396 53.0084Z" fill="#3238BA"/>
<circle cx="55.7317" cy="57.7017" r="3" fill="#00A878" fill-opacity="0.1" stroke="#00A878"/>
<circle cx="55.7317" cy="74.9484" r="3" fill="#C4C4C4" fill-opacity="0.3" stroke="#C4C4C4"/>
<circle cx="55.7317" cy="92.1951" r="3" fill="#C4C4C4" fill-opacity="0.3" stroke="#C4C4C4"/>
<circle cx="55.7317" cy="109.442" r="3" fill="#C4C4C4" fill-opacity="0.3" stroke="#C4C4C4"/>
<circle cx="55.7317" cy="126.688" r="3" fill="#C4C4C4" fill-opacity="0.3" stroke="#C4C4C4"/>
<circle cx="55.7317" cy="143.935" r="3" fill="#C4C4C4" fill-opacity="0.3" stroke="#C4C4C4"/>
<circle r="3" transform="matrix(-1 0 0 1 298.145 57.7017)" fill="#00A878" fill-opacity="0.1" stroke="#00A878"/>
<circle r="3" transform="matrix(-1 0 0 1 298.145 74.9484)" fill="#00A878" fill-opacity="0.1" stroke="#00A878"/>
<circle r="3" transform="matrix(-1 0 0 1 298.145 92.1951)" fill="#00A878" fill-opacity="0.1" stroke="#00A878"/>
<circle r="3" transform="matrix(-1 0 0 1 298.145 109.442)" fill="#00A878" fill-opacity="0.1" stroke="#00A878"/>
<circle r="3" transform="matrix(-1 0 0 1 298.145 126.688)" fill="#00A878" fill-opacity="0.1" stroke="#00A878"/>
<circle r="3" transform="matrix(-1 0 0 1 298.145 143.935)" fill="#00A878" fill-opacity="0.1" stroke="#00A878"/>
<circle cx="68.0033" cy="57.7017" r="3" fill="#00A878" fill-opacity="0.1" stroke="#00A878"/>
<circle cx="68.0033" cy="74.9484" r="3" fill="#C4C4C4" fill-opacity="0.3" stroke="#C4C4C4"/>
<circle cx="68.0033" cy="92.1951" r="3" fill="#C4C4C4" fill-opacity="0.3" stroke="#C4C4C4"/>
<circle cx="68.0033" cy="109.442" r="3" fill="#C4C4C4" fill-opacity="0.3" stroke="#C4C4C4"/>
<circle cx="68.0033" cy="126.688" r="3" fill="#C4C4C4" fill-opacity="0.3" stroke="#C4C4C4"/>
<circle cx="68.0033" cy="143.935" r="3" fill="#C4C4C4" fill-opacity="0.3" stroke="#C4C4C4"/>
<circle r="3" transform="matrix(-1 0 0 1 285.542 57.7017)" fill="#00A878" fill-opacity="0.1" stroke="#00A878"/>
<circle r="3" transform="matrix(-1 0 0 1 285.542 74.9484)" fill="#00A878" fill-opacity="0.1" stroke="#00A878"/>
<circle r="3" transform="matrix(-1 0 0 1 285.542 92.1951)" fill="#00A878" fill-opacity="0.1" stroke="#00A878"/>
<circle r="3" transform="matrix(-1 0 0 1 285.542 109.442)" fill="#00A878" fill-opacity="0.1" stroke="#00A878"/>
<circle r="3" transform="matrix(-1 0 0 1 285.542 126.688)" fill="#00A878" fill-opacity="0.1" stroke="#00A878"/>
<circle r="3" transform="matrix(-1 0 0 1 285.542 143.935)" fill="#00A878" fill-opacity="0.1" stroke="#00A878"/>
<circle cx="80.9384" cy="57.7017" r="3" fill="#00A878" fill-opacity="0.1" stroke="#00A878"/>
<circle cx="80.9384" cy="74.9484" r="3" fill="#C4C4C4" fill-opacity="0.3" stroke="#C4C4C4"/>
<circle cx="80.9384" cy="92.1951" r="3" fill="#C4C4C4" fill-opacity="0.3" stroke="#C4C4C4"/>
<circle cx="80.9384" cy="109.442" r="3" fill="#C4C4C4" fill-opacity="0.3" stroke="#C4C4C4"/>
<circle cx="80.9384" cy="126.688" r="3" fill="#C4C4C4" fill-opacity="0.3" stroke="#C4C4C4"/>
<circle cx="80.9384" cy="143.935" r="3" fill="#C4C4C4" fill-opacity="0.3" stroke="#C4C4C4"/>
<circle r="3" transform="matrix(-1 0 0 1 272.938 57.7017)" fill="#00A878" fill-opacity="0.1" stroke="#00A878"/>
<circle r="3" transform="matrix(-1 0 0 1 272.938 74.9484)" fill="#00A878" fill-opacity="0.1" stroke="#00A878"/>
<circle r="3" transform="matrix(-1 0 0 1 272.938 92.1951)" fill="#00A878" fill-opacity="0.1" stroke="#00A878"/>
<circle r="3" transform="matrix(-1 0 0 1 272.938 109.442)" fill="#00A878" fill-opacity="0.1" stroke="#00A878"/>
<circle r="3" transform="matrix(-1 0 0 1 272.938 126.688)" fill="#00A878" fill-opacity="0.1" stroke="#00A878"/>
<circle r="3" transform="matrix(-1 0 0 1 272.938 143.935)" fill="#00A878" fill-opacity="0.1" stroke="#00A878"/>
<circle cx="93.5416" cy="57.7017" r="3" fill="#00A878" fill-opacity="0.1" stroke="#00A878"/>
<circle cx="93.5416" cy="74.9484" r="3" fill="#00A878" fill-opacity="0.1" stroke="#00A878"/>
<circle cx="93.5416" cy="92.1951" r="3" fill="#00A878" fill-opacity="0.1" stroke="#00A878"/>
<circle cx="93.5416" cy="109.442" r="3" fill="#00A878" fill-opacity="0.1" stroke="#00A878"/>
<circle cx="93.5416" cy="126.688" r="3" fill="#00A878" fill-opacity="0.1" stroke="#00A878"/>
<circle cx="93.5416" cy="143.935" r="3" fill="#00A878" fill-opacity="0.1" stroke="#00A878"/>
<circle r="3" transform="matrix(-1 0 0 1 260.667 57.7017)" fill="#C4C4C4" fill-opacity="0.3" stroke="#C4C4C4"/>
<circle r="3" transform="matrix(-1 0 0 1 260.667 74.9484)" fill="#C4C4C4" fill-opacity="0.3" stroke="#C4C4C4"/>
<circle r="3" transform="matrix(-1 0 0 1 260.667 92.1951)" fill="#C4C4C4" fill-opacity="0.3" stroke="#C4C4C4"/>
<circle r="3" transform="matrix(-1 0 0 1 260.667 109.442)" fill="#C4C4C4" fill-opacity="0.3" stroke="#C4C4C4"/>
<circle r="3" transform="matrix(-1 0 0 1 260.667 126.688)" fill="#C4C4C4" fill-opacity="0.3" stroke="#C4C4C4"/>
<circle r="3" transform="matrix(-1 0 0 1 260.667 143.935)" fill="#C4C4C4" fill-opacity="0.3" stroke="#C4C4C4"/>
<circle cx="105.813" cy="57.7017" r="3" fill="#C4C4C4" fill-opacity="0.1" stroke="#C4C4C4"/>
<circle cx="105.813" cy="74.9484" r="3" fill="#00A878" fill-opacity="0.1" stroke="#00A878"/>
<circle cx="105.813" cy="92.1951" r="3" fill="#00A878" fill-opacity="0.1" stroke="#00A878"/>
<circle cx="105.813" cy="109.442" r="3" fill="#00A878" fill-opacity="0.1" stroke="#00A878"/>
<circle cx="105.813" cy="126.688" r="3" fill="#00A878" fill-opacity="0.1" stroke="#00A878"/>
<circle cx="105.813" cy="143.935" r="3" fill="#00A878" fill-opacity="0.1" stroke="#00A878"/>
<circle r="3" transform="matrix(-1 0 0 1 248.395 57.7017)" fill="#C4C4C4" fill-opacity="0.3" stroke="#C4C4C4"/>
<circle r="3" transform="matrix(-1 0 0 1 248.395 74.9484)" fill="#C4C4C4" fill-opacity="0.3" stroke="#C4C4C4"/>
<circle r="3" transform="matrix(-1 0 0 1 248.395 92.1951)" fill="#C4C4C4" fill-opacity="0.3" stroke="#C4C4C4"/>
<circle r="3" transform="matrix(-1 0 0 1 248.395 109.442)" fill="#C4C4C4" fill-opacity="0.3" stroke="#C4C4C4"/>
<circle r="3" transform="matrix(-1 0 0 1 248.395 126.688)" fill="#C4C4C4" fill-opacity="0.3" stroke="#C4C4C4"/>
<circle r="3" transform="matrix(-1 0 0 1 248.395 143.935)" fill="#C4C4C4" fill-opacity="0.3" stroke="#C4C4C4"/>
<circle cx="117.753" cy="57.7017" r="3" fill="#C4C4C4" fill-opacity="0.3" stroke="#C4C4C4"/>
<circle cx="117.753" cy="74.9484" r="3" fill="#C4C4C4" fill-opacity="0.3" stroke="#C4C4C4"/>
<circle cx="117.753" cy="92.1951" r="3" fill="#C4C4C4" fill-opacity="0.3" stroke="#C4C4C4"/>
<circle cx="117.753" cy="109.442" r="3" fill="#C4C4C4" fill-opacity="0.3" stroke="#C4C4C4"/>
<circle cx="117.753" cy="126.688" r="3" fill="#C4C4C4" fill-opacity="0.3" stroke="#C4C4C4"/>
<circle r="3" transform="matrix(-1 0 0 1 235.792 57.7017)" fill="#C4C4C4" fill-opacity="0.3" stroke="#C4C4C4"/>
<circle r="3" transform="matrix(-1 0 0 1 235.792 74.9484)" fill="#C4C4C4" fill-opacity="0.3" stroke="#C4C4C4"/>
<circle r="3" transform="matrix(-1 0 0 1 235.792 92.1951)" fill="#C4C4C4" fill-opacity="0.3" stroke="#C4C4C4"/>
<circle r="3" transform="matrix(-1 0 0 1 235.792 109.442)" fill="#C4C4C4" fill-opacity="0.3" stroke="#C4C4C4"/>
<circle r="3" transform="matrix(-1 0 0 1 235.792 126.688)" fill="#C4C4C4" fill-opacity="0.3" stroke="#C4C4C4"/>
<circle cx="144.95" cy="57.7017" r="3" fill="#C4C4C4" fill-opacity="0.3" stroke="#C4C4C4"/>
<circle cx="144.95" cy="74.9484" r="3" fill="#C4C4C4" fill-opacity="0.3" stroke="#C4C4C4"/>
<circle cx="144.95" cy="92.1951" r="3" fill="#C4C4C4" fill-opacity="0.3" stroke="#C4C4C4"/>
<circle cx="144.95" cy="109.442" r="3" fill="#C4C4C4" fill-opacity="0.3" stroke="#C4C4C4"/>
<circle cx="144.95" cy="126.688" r="3" fill="#C4C4C4" fill-opacity="0.3" stroke="#C4C4C4"/>
<circle cx="144.95" cy="143.935" r="3" fill="#C4C4C4" fill-opacity="0.3" stroke="#C4C4C4"/>
<circle cx="157.553" cy="57.7017" r="3" fill="#C4C4C4" fill-opacity="0.3" stroke="#C4C4C4"/>
<circle cx="157.553" cy="74.9484" r="3" fill="#C4C4C4" fill-opacity="0.3" stroke="#C4C4C4"/>
<circle cx="157.553" cy="92.1951" r="3" fill="#C4C4C4" fill-opacity="0.3" stroke="#C4C4C4"/>
<circle cx="157.553" cy="109.442" r="3" fill="#C4C4C4" fill-opacity="0.3" stroke="#C4C4C4"/>
<circle cx="157.553" cy="126.688" r="3" fill="#C4C4C4" fill-opacity="0.3" stroke="#C4C4C4"/>
<circle cx="157.553" cy="143.935" r="3" fill="#C4C4C4" fill-opacity="0.3" stroke="#C4C4C4"/>
<circle cx="170.157" cy="57.7017" r="3" fill="#C4C4C4" fill-opacity="0.3" stroke="#C4C4C4"/>
<circle cx="170.157" cy="74.9484" r="3" fill="#C4C4C4" fill-opacity="0.3" stroke="#C4C4C4"/>
<circle cx="170.157" cy="92.1951" r="3" fill="#C4C4C4" fill-opacity="0.3" stroke="#C4C4C4"/>
<circle cx="170.157" cy="109.442" r="3" fill="#C4C4C4" fill-opacity="0.3" stroke="#C4C4C4"/>
<circle cx="170.157" cy="126.688" r="3" fill="#C4C4C4" fill-opacity="0.3" stroke="#C4C4C4"/>
<circle cx="170.157" cy="143.935" r="3" fill="#C4C4C4" fill-opacity="0.3" stroke="#C4C4C4"/>
<circle cx="182.76" cy="57.7017" r="3" fill="#C4C4C4" fill-opacity="0.3" stroke="#C4C4C4"/>
<circle cx="182.76" cy="74.9484" r="3" fill="#C4C4C4" fill-opacity="0.3" stroke="#C4C4C4"/>
<circle cx="182.76" cy="92.1951" r="3" fill="#C4C4C4" fill-opacity="0.3" stroke="#C4C4C4"/>
<circle cx="182.76" cy="109.442" r="3" fill="#C4C4C4" fill-opacity="0.3" stroke="#C4C4C4"/>
<circle cx="182.76" cy="126.688" r="3" fill="#C4C4C4" fill-opacity="0.3" stroke="#C4C4C4"/>
<circle cx="182.76" cy="143.935" r="3" fill="#C4C4C4" fill-opacity="0.3" stroke="#C4C4C4"/>
<circle cx="207.635" cy="57.7017" r="3" fill="#C4C4C4" fill-opacity="0.3" stroke="#C4C4C4"/>
<circle cx="207.635" cy="74.9484" r="3" fill="#C4C4C4" fill-opacity="0.3" stroke="#C4C4C4"/>
<circle cx="207.635" cy="92.1951" r="3" fill="#C4C4C4" fill-opacity="0.3" stroke="#C4C4C4"/>
<circle cx="207.635" cy="109.442" r="3" fill="#C4C4C4" fill-opacity="0.3" stroke="#C4C4C4"/>
<circle cx="207.635" cy="126.688" r="3" fill="#C4C4C4" fill-opacity="0.3" stroke="#C4C4C4"/>
<circle cx="207.635" cy="143.935" r="3" fill="#C4C4C4" fill-opacity="0.3" stroke="#C4C4C4"/>
<circle cx="195.363" cy="57.7017" r="3" fill="#C4C4C4" fill-opacity="0.3" stroke="#C4C4C4"/>
<circle cx="195.363" cy="74.9484" r="3" fill="#C4C4C4" fill-opacity="0.3" stroke="#C4C4C4"/>
<circle cx="195.363" cy="92.1951" r="3" fill="#C4C4C4" fill-opacity="0.3" stroke="#C4C4C4"/>
<circle cx="195.363" cy="109.442" r="3" fill="#C4C4C4" fill-opacity="0.3" stroke="#C4C4C4"/>
<circle cx="195.363" cy="126.688" r="3" fill="#C4C4C4" fill-opacity="0.3" stroke="#C4C4C4"/>
<circle cx="195.363" cy="143.935" r="3" fill="#C4C4C4" fill-opacity="0.3" stroke="#C4C4C4"/>
<line x1="247" y1="27.99" x2="287.775" y2="27.99" stroke="#3238BA" stroke-width="4" stroke-linecap="round"/>
<line x1="66" y1="27.99" x2="107.107" y2="27.99" stroke="#3238BA" stroke-width="4" stroke-linecap="round"/>
<line x1="320.872" y1="189.443" x2="320.872" y2="149" stroke="#3238BA" stroke-width="4" stroke-linecap="round"/>
<rect x="156" y="174.265" width="41.1267" height="21.5583" rx="4" fill="#C4C4C4"/>
<rect x="156" y="174.265" width="41.1267" height="21.5583" rx="4" stroke="#C4C4C4"/>
<defs>
<filter id="filter0_d" x="0" y="0" width="353.213" height="263" filterUnits="userSpaceOnUse" color-interpolation-filters="sRGB">
<feFlood flood-opacity="0" result="BackgroundImageFix"/>
<feColorMatrix in="SourceAlpha" type="matrix" values="0 0 0 0 0 0 0 0 0 0 0 0 0 0 0 0 0 0 127 0" result="hardAlpha"/>
<feMorphology radius="2" operator="dilate" in="SourceAlpha" result="effect1_dropShadow"/>
<feOffset dy="4"/>
<feGaussianBlur stdDeviation="15"/>
<feColorMatrix type="matrix" values="0 0 0 0 0 0 0 0 0 0 0 0 0 0 0 0 0 0 0.2 0"/>
<feBlend mode="normal" in2="BackgroundImageFix" result="effect1_dropShadow"/>
<feBlend mode="normal" in="SourceGraphic" in2="effect1_dropShadow" result="shape"/>
</filter>
</defs>
</svg>
